<svg xmlns="http://www.w3.org/2000/svg" viewBox="0 0 48 48" width="48" height="48" role="img" aria-label="종이 연필검" shape-rendering="crispEdges"><title>종이 연필검</title><desc>common attack 픽셀 장비</desc><rect x="5" y="5" width="38" height="38" fill="#f3e6c9" opacity=".74"/><rect x="3" y="3" width="8" height="2" fill="#49382d"/><rect x="3" y="5" width="2" height="6" fill="#49382d"/><rect x="37" y="3" width="8" height="2" fill="#49382d"/><rect x="43" y="5" width="2" height="6" fill="#49382d"/><rect x="3" y="43" width="8" height="2" fill="#49382d"/><rect x="3" y="37" width="2" height="6" fill="#49382d"/><rect x="37" y="43" width="8" height="2" fill="#49382d"/><rect x="43" y="37" width="2" height="6" fill="#49382d"/><rect x="35" y="35" width="2" height="2" fill="#9b5a48"/><rect x="38" y="35" width="2" height="2" fill="#dec18b"/><rect x="41" y="35" width="2" height="2" fill="#dec18b"/><rect x="35" y="38" width="2" height="2" fill="#dec18b"/><rect x="38" y="38" width="2" height="2" fill="#dec18b"/><rect x="41" y="38" width="2" height="2" fill="#dec18b"/><rect x="35" y="41" width="2" height="2" fill="#dec18b"/><rect x="38" y="41" width="2" height="2" fill="#dec18b"/><rect x="41" y="41" width="2" height="2" fill="#dec18b"/><g><polygon points="11,35 15,39 37,17 37,9 29,9 7,31" fill="#49382d"/><polygon points="13,34 16,37 34,19 34,13 30,13 10,33" fill="#dec18b"/><rect x="7" y="35" width="14" height="4" fill="#527f83"/><rect x="10" y="39" width="5" height="5" fill="#49382d"/><rect x="12" y="39" width="2" height="3" fill="#9b7652"/><rect x="27" y="15" width="4" height="4" fill="#fff5db"/></g></svg>
