<svg xmlns="http://www.w3.org/2000/svg" viewBox="0 0 48 48" width="48" height="48" role="img" aria-label="천상의 연필검" shape-rendering="crispEdges"><title>천상의 연필검</title><desc>divine attack 픽셀 장비</desc><rect x="2" y="2" width="44" height="44" fill="#49382d"/><rect x="4" y="4" width="40" height="40" fill="#d75d52"/><rect x="6" y="6" width="36" height="36" fill="#fff2ec"/><rect x="2" y="2" width="10" height="3" fill="#49382d"/><rect x="2" y="5" width="3" height="9" fill="#49382d"/><rect x="36" y="2" width="10" height="3" fill="#49382d"/><rect x="43" y="5" width="3" height="9" fill="#49382d"/><rect x="2" y="43" width="10" height="3" fill="#49382d"/><rect x="2" y="34" width="3" height="9" fill="#49382d"/><rect x="36" y="43" width="10" height="3" fill="#49382d"/><rect x="43" y="34" width="3" height="9" fill="#49382d"/><rect x="7" y="7" width="34" height="2" fill="#ffe8bd" opacity=".85"/><rect x="7" y="39" width="34" height="2" fill="#713936" opacity=".22"/><polygon points="12,4 14,6 12,8 10,6" fill="#d75d52"/><polygon points="16,4 18,6 16,8 14,6" fill="#d75d52"/><polygon points="20,4 22,6 20,8 18,6" fill="#d75d52"/><polygon points="24,4 26,6 24,8 22,6" fill="#d75d52"/><polygon points="28,4 30,6 28,8 26,6" fill="#ffe8bd"/><rect x="4" y="18" width="2" height="12" fill="#ffe8bd"/><rect x="42" y="18" width="2" height="12" fill="#713936"/><rect x="9" y="4" width="3" height="3" fill="#ffe8bd"/><rect x="36" y="4" width="3" height="3" fill="#ffe8bd"/><rect x="9" y="41" width="3" height="3" fill="#d75d52"/><rect x="36" y="41" width="3" height="3" fill="#d75d52"/><polygon points="18,3 21,0 24,3 27,0 30,3 28,6 20,6" fill="#d75d52"/><g><polygon points="13,35 17,39 39,17 39,9 31,9 9,31" fill="#49382d"/><polygon points="15,34 18,37 36,19 36,13 32,13 12,33" fill="#f4aa80"/><rect x="9" y="35" width="14" height="4" fill="#c64d48"/><rect x="12" y="39" width="5" height="5" fill="#49382d"/><rect x="14" y="39" width="2" height="3" fill="#ca6255"/><rect x="29" y="15" width="4" height="4" fill="#ffe8bd"/></g><polygon points="8,14 11,9 14,11 12,15" fill="#c64d48"/><rect x="10" y="12" width="2" height="5" fill="#ffe8bd"/><rect x="35" y="34" width="10" height="11" fill="#49382d"/><rect x="37" y="36" width="6" height="7" fill="#fff2ec"/><path d="M40,37L39,38.5L40,40L39,41.5L38,43" fill="none" stroke="#c64d48" stroke-width="1.5" stroke-linecap="square" stroke-linejoin="miter"/></svg>
