<svg xmlns="http://www.w3.org/2000/svg" viewBox="0 0 48 48" width="48" height="48" role="img" aria-label="푸른 사전" shape-rendering="crispEdges"><title>푸른 사전</title><desc>uncommon defense 픽셀 장비</desc><rect x="5" y="5" width="38" height="38" fill="#dce9df" opacity=".74"/><rect x="3" y="3" width="8" height="2" fill="#2f4240"/><rect x="3" y="5" width="2" height="6" fill="#2f4240"/><rect x="37" y="3" width="8" height="2" fill="#2f4240"/><rect x="43" y="5" width="2" height="6" fill="#2f4240"/><rect x="3" y="43" width="8" height="2" fill="#2f4240"/><rect x="3" y="37" width="2" height="6" fill="#2f4240"/><rect x="37" y="43" width="8" height="2" fill="#2f4240"/><rect x="43" y="37" width="2" height="6" fill="#2f4240"/><rect x="8" y="6" width="2" height="2" fill="#f2f2cf"/><rect x="10" y="4" width="2" height="2" fill="#9a7547"/><rect x="10" y="8" width="2" height="2" fill="#9a7547"/><rect x="35" y="35" width="2" height="2" fill="#c69b43"/><rect x="38" y="35" width="2" height="2" fill="#c69b43"/><rect x="41" y="35" width="2" height="2" fill="#c69b43"/><rect x="35" y="38" width="2" height="2" fill="#c69b43"/><rect x="38" y="38" width="2" height="2" fill="#9fc5b5"/><rect x="41" y="38" width="2" height="2" fill="#c69b43"/><rect x="35" y="41" width="2" height="2" fill="#9fc5b5"/><rect x="38" y="41" width="2" height="2" fill="#c69b43"/><rect x="41" y="41" width="2" height="2" fill="#9fc5b5"/><g><polygon points="7,12 35,7 42,13 42,38 14,43 7,37" fill="#2f4240"/><polygon points="10,14 34,10 38,14 38,34 14,39 10,35" fill="#5e8b83"/><polygon points="14,17 35,13 35,32 14,36" fill="#dce9df"/><rect x="10" y="14" width="5" height="22" fill="#9a7547"/><rect x="19" y="26" width="12" height="2" fill="#9fc5b5"/><rect x="19" y="23" width="10" height="2" fill="#9fc5b5"/><rect x="13" y="39" width="26" height="3" fill="#9fc5b5"/></g></svg>
