<svg xmlns="http://www.w3.org/2000/svg" viewBox="0 0 48 48" width="48" height="48" role="img" aria-label="산들 잉크병" shape-rendering="crispEdges"><title>산들 잉크병</title><desc>uncommon heal 픽셀 장비</desc><rect x="2" y="2" width="44" height="44" fill="#49382d"/><rect x="4" y="4" width="40" height="40" fill="#6697c1"/><rect x="6" y="6" width="36" height="36" fill="#f4f8ff"/><rect x="2" y="2" width="10" height="3" fill="#49382d"/><rect x="2" y="5" width="3" height="9" fill="#49382d"/><rect x="36" y="2" width="10" height="3" fill="#49382d"/><rect x="43" y="5" width="3" height="9" fill="#49382d"/><rect x="2" y="43" width="10" height="3" fill="#49382d"/><rect x="2" y="34" width="3" height="9" fill="#49382d"/><rect x="36" y="43" width="10" height="3" fill="#49382d"/><rect x="43" y="34" width="3" height="9" fill="#49382d"/><rect x="7" y="7" width="34" height="2" fill="#e9f6ff" opacity=".85"/><rect x="7" y="39" width="34" height="2" fill="#3c6571" opacity=".22"/><polygon points="18,4 20,6 18,8 16,6" fill="#6697c1"/><polygon points="22,4 24,6 22,8 20,6" fill="#e9f6ff"/><g><rect x="17" y="5" width="14" height="5" fill="#49382d"/><rect x="15" y="10" width="18" height="6" fill="#4f789d"/><rect x="10" y="16" width="28" height="25" fill="#49382d"/><polygon points="14,19 34,19 32,37 16,37" fill="#5e98a6"/><polygon points="16,21 24,21 24,35 18,35" fill="#abd4da"/><rect x="19" y="27" width="10" height="5" fill="#f4f8ff"/><rect x="22" y="28" width="4" height="3" fill="#4f789d"/><rect x="13" y="40" width="22" height="3" fill="#49382d"/></g><rect x="11" y="9" width="2" height="8" fill="#4f789d"/><rect x="8" y="12" width="8" height="2" fill="#4f789d"/><rect x="9" y="10" width="2" height="2" fill="#e9f6ff"/><rect x="14" y="15" width="2" height="2" fill="#e9f6ff"/><rect x="35" y="34" width="10" height="11" fill="#49382d"/><rect x="37" y="36" width="6" height="7" fill="#f4f8ff"/><path d="M40,37L40,38.5L39,40L38,41.5L39,43" fill="none" stroke="#4f789d" stroke-width="1.5" stroke-linecap="square" stroke-linejoin="miter"/></svg>
