<svg xmlns="http://www.w3.org/2000/svg" viewBox="0 0 48 48" width="48" height="48" role="img" aria-label="고대의 책갈피" shape-rendering="crispEdges"><title>고대의 책갈피</title><desc>legend heal 픽셀 장비</desc><rect x="2" y="2" width="44" height="44" fill="#49382d"/><rect x="4" y="4" width="40" height="40" fill="#e0b33f"/><rect x="6" y="6" width="36" height="36" fill="#fff9df"/><rect x="2" y="2" width="10" height="3" fill="#49382d"/><rect x="2" y="5" width="3" height="9" fill="#49382d"/><rect x="36" y="2" width="10" height="3" fill="#49382d"/><rect x="43" y="5" width="3" height="9" fill="#49382d"/><rect x="2" y="43" width="10" height="3" fill="#49382d"/><rect x="2" y="34" width="3" height="9" fill="#49382d"/><rect x="36" y="43" width="10" height="3" fill="#49382d"/><rect x="43" y="34" width="3" height="9" fill="#49382d"/><rect x="7" y="7" width="34" height="2" fill="#fff1a4" opacity=".85"/><rect x="7" y="39" width="34" height="2" fill="#795a27" opacity=".22"/><polygon points="14,4 16,6 14,8 12,6" fill="#e0b33f"/><polygon points="18,4 20,6 18,8 16,6" fill="#e0b33f"/><polygon points="22,4 24,6 22,8 20,6" fill="#e0b33f"/><polygon points="26,4 28,6 26,8 24,6" fill="#fff1a4"/><rect x="4" y="18" width="2" height="12" fill="#fff1a4"/><rect x="42" y="18" width="2" height="12" fill="#795a27"/><rect x="9" y="4" width="3" height="3" fill="#fff1a4"/><rect x="36" y="4" width="3" height="3" fill="#fff1a4"/><rect x="9" y="41" width="3" height="3" fill="#e0b33f"/><rect x="36" y="41" width="3" height="3" fill="#e0b33f"/><g><rect x="15" y="6" width="18" height="37" fill="#49382d"/><rect x="18" y="8" width="12" height="29" fill="#ca9b3e"/><polygon points="18,37 24,32 30,37 30,43 24,39 18,43" fill="#49382d"/><rect x="20" y="11" width="8" height="3" fill="#f2d776"/><rect x="21" y="21" width="6" height="6" fill="#b6792f"/><rect x="23" y="23" width="2" height="2" fill="#fff1a4"/></g><path d="M8 11H14L16 13H10M8 15H13" fill="#b6792f" stroke="#b6792f" stroke-width="2"/><rect x="35" y="34" width="10" height="11" fill="#49382d"/><rect x="37" y="36" width="6" height="7" fill="#fff9df"/><path d="M39,37L39,38.5L41,40L38,41.5L39,43" fill="none" stroke="#b6792f" stroke-width="1.5" stroke-linecap="square" stroke-linejoin="miter"/></svg>
