<svg xmlns="http://www.w3.org/2000/svg" viewBox="0 0 48 48" width="48" height="48" role="img" aria-label="구름 문장석" shape-rendering="crispEdges"><title>구름 문장석</title><desc>common heal 픽셀 장비</desc><rect x="5" y="5" width="38" height="38" fill="#f3e6c9" opacity=".74"/><rect x="3" y="3" width="8" height="2" fill="#49382d"/><rect x="3" y="5" width="2" height="6" fill="#49382d"/><rect x="37" y="3" width="8" height="2" fill="#49382d"/><rect x="43" y="5" width="2" height="6" fill="#49382d"/><rect x="3" y="43" width="8" height="2" fill="#49382d"/><rect x="3" y="37" width="2" height="6" fill="#49382d"/><rect x="37" y="43" width="8" height="2" fill="#49382d"/><rect x="43" y="37" width="2" height="6" fill="#49382d"/><rect x="35" y="35" width="2" height="2" fill="#dec18b"/><rect x="38" y="35" width="2" height="2" fill="#527f83"/><rect x="41" y="35" width="2" height="2" fill="#dec18b"/><rect x="35" y="38" width="2" height="2" fill="#dec18b"/><rect x="38" y="38" width="2" height="2" fill="#527f83"/><rect x="41" y="38" width="2" height="2" fill="#527f83"/><rect x="35" y="41" width="2" height="2" fill="#527f83"/><rect x="38" y="41" width="2" height="2" fill="#527f83"/><rect x="41" y="41" width="2" height="2" fill="#dec18b"/><g><polygon points="24,5 40,18 35,36 24,44 13,36 8,18" fill="#49382d"/><polygon points="24,9 36,19 32,33 24,39 16,33 12,19" fill="#9b7652"/><polygon points="24,10 23,20 24,36 14,20" fill="#dec18b"/><polygon points="25,11 35,20 25,20" fill="#fff5db"/><rect x="21" y="20" width="6" height="6" fill="#527f83"/></g></svg>
