<svg xmlns="http://www.w3.org/2000/svg" viewBox="0 0 48 48" width="48" height="48" role="img" aria-label="숲 친구 2" shape-rendering="crispEdges"><title>숲 친구 2</title><desc>뒹굴 자체 픽셀 페르소나</desc><rect x="4" y="4" width="40" height="40" fill="#dfe9c9" opacity=".78"/><rect x="4" y="4" width="12" height="3" fill="#49382d"/><rect x="4" y="7" width="3" height="9" fill="#49382d"/><rect x="32" y="41" width="12" height="3" fill="#49382d"/><rect x="41" y="32" width="3" height="9" fill="#49382d"/><g><polygon points="10,17 13,5 22,15 26,15 35,5 38,17" fill="#b5ca7b"/><rect x="9" y="14" width="30" height="27" fill="#6e8752"/><rect x="12" y="17" width="24" height="21" fill="#b5ca7b"/><rect x="13" y="18" width="22" height="17" fill="#f1e4bd"/><rect x="17" y="24" width="4" height="5" fill="#3c2d28"/><rect x="28" y="24" width="4" height="5" fill="#3c2d28"/><rect x="23" y="29" width="3" height="3" fill="#b76852"/><rect x="10" y="34" width="28" height="5" fill="#6e8752"/><rect x="21" y="32" width="6" height="10" fill="#b5ca7b"/></g></svg>
