<svg xmlns="http://www.w3.org/2000/svg" viewBox="0 0 48 48" width="48" height="48" role="img" aria-label="숲 친구 5" shape-rendering="crispEdges"><title>숲 친구 5</title><desc>뒹굴 자체 픽셀 페르소나</desc><rect x="4" y="4" width="40" height="40" fill="#f0d0bd" opacity=".78"/><rect x="4" y="4" width="12" height="3" fill="#49382d"/><rect x="4" y="7" width="3" height="9" fill="#49382d"/><rect x="32" y="41" width="12" height="3" fill="#49382d"/><rect x="41" y="32" width="3" height="9" fill="#49382d"/><g><polygon points="11,15 15,6 20,16 28,16 33,6 38,15" fill="#a95e45"/><rect x="9" y="14" width="30" height="27" fill="#a95e45"/><rect x="12" y="17" width="24" height="21" fill="#e08a61"/><rect x="14" y="23" width="8" height="7" fill="#f5d4ae"/><rect x="26" y="23" width="8" height="7" fill="#f5d4ae"/><rect x="17" y="24" width="4" height="5" fill="#3c2d28"/><rect x="28" y="24" width="4" height="5" fill="#3c2d28"/><rect x="23" y="29" width="3" height="3" fill="#b76852"/><rect x="8" y="30" width="8" height="10" fill="#a95e45"/><rect x="32" y="30" width="8" height="10" fill="#a95e45"/><rect x="17" y="36" width="14" height="5" fill="#e08a61"/></g></svg>
