<svg xmlns="http://www.w3.org/2000/svg" viewBox="0 0 48 48" width="48" height="48" role="img" aria-label="숲 친구 9" shape-rendering="crispEdges"><title>숲 친구 9</title><desc>뒹굴 자체 픽셀 페르소나</desc><rect x="4" y="4" width="40" height="40" fill="#d5e4e5" opacity=".78"/><rect x="4" y="4" width="12" height="3" fill="#49382d"/><rect x="4" y="7" width="3" height="9" fill="#49382d"/><rect x="32" y="41" width="12" height="3" fill="#49382d"/><rect x="41" y="32" width="3" height="9" fill="#49382d"/><g><polygon points="11,15 15,6 20,16 28,16 33,6 38,15" fill="#526f86"/><rect x="9" y="14" width="30" height="27" fill="#526f86"/><rect x="12" y="17" width="24" height="21" fill="#8cb0bd"/><rect x="14" y="23" width="8" height="7" fill="#e8e1c4"/><rect x="26" y="23" width="8" height="7" fill="#e8e1c4"/><rect x="17" y="24" width="4" height="5" fill="#3c2d28"/><rect x="28" y="24" width="4" height="5" fill="#3c2d28"/><rect x="23" y="29" width="3" height="3" fill="#b76852"/><rect x="18" y="35" width="12" height="7" fill="#526f86"/><rect x="21" y="31" width="6" height="5" fill="#8cb0bd"/></g></svg>
