<svg xmlns="http://www.w3.org/2000/svg" viewBox="0 0 96 80" width="96" height="80" role="img" aria-label="divine 닫힌 장비 상자" shape-rendering="crispEdges"><title>divine 닫힌 장비 상자</title><desc>divine 등급 픽셀 보물상자</desc><rect x="9" y="69" width="78" height="6" fill="#49382d" opacity=".2"/><rect x="18" y="8" width="5" height="5" fill="#ffe8bd"/><rect x="19" y="6" width="3" height="3" fill="#c64d48"/><rect x="31" y="12" width="5" height="5" fill="#ffe8bd"/><rect x="32" y="10" width="3" height="3" fill="#c64d48"/><rect x="44" y="8" width="5" height="5" fill="#ffe8bd"/><rect x="45" y="6" width="3" height="3" fill="#c64d48"/><rect x="57" y="12" width="5" height="5" fill="#ffe8bd"/><rect x="58" y="10" width="3" height="3" fill="#c64d48"/><rect x="70" y="8" width="5" height="5" fill="#ffe8bd"/><rect x="71" y="6" width="3" height="3" fill="#c64d48"/><rect x="13" y="20" width="70" height="23" fill="#49382d"/><rect x="18" y="24" width="60" height="15" fill="#bd5b4e"/><rect x="22" y="27" width="52" height="6" fill="#ef9b78"/><rect x="13" y="40" width="70" height="32" fill="#49382d"/><rect x="18" y="44" width="60" height="22" fill="#bd5b4e"/><rect x="16" y="49" width="64" height="7" fill="#c64d48"/><rect x="42" y="46" width="13" height="18" fill="#49382d"/><rect x="45" y="49" width="7" height="9" fill="#ffe8bd"/><rect x="20" y="60" width="8" height="5" fill="#ef9b78"/><rect x="68" y="60" width="8" height="5" fill="#ef9b78"/><rect x="27" y="52" width="5" height="5" fill="#ffe8bd"/><rect x="64" y="52" width="5" height="5" fill="#ffe8bd"/><polygon points="8,44 13,38 13,55" fill="#ffe8bd"/><polygon points="88,44 83,38 83,55" fill="#ffe8bd"/><rect x="6" y="25" width="6" height="6" fill="#c64d48"/><rect x="84" y="25" width="6" height="6" fill="#c64d48"/><rect x="46" y="0" width="5" height="7" fill="#ffe8bd"/></svg>
