<svg xmlns="http://www.w3.org/2000/svg" viewBox="0 0 96 80" width="96" height="80" role="img" aria-label="legend 열린 장비 상자" shape-rendering="crispEdges"><title>legend 열린 장비 상자</title><desc>legend 등급 픽셀 보물상자</desc><rect x="9" y="69" width="78" height="6" fill="#49382d" opacity=".2"/><rect x="18" y="8" width="5" height="5" fill="#fff1a4"/><rect x="19" y="6" width="3" height="3" fill="#b6792f"/><rect x="31" y="12" width="5" height="5" fill="#fff1a4"/><rect x="32" y="10" width="3" height="3" fill="#b6792f"/><rect x="44" y="8" width="5" height="5" fill="#fff1a4"/><rect x="45" y="6" width="3" height="3" fill="#b6792f"/><rect x="57" y="12" width="5" height="5" fill="#fff1a4"/><rect x="58" y="10" width="3" height="3" fill="#b6792f"/><polygon points="15,27 21,7 75,7 82,27" fill="#49382d"/><polygon points="21,23 25,11 71,11 76,23" fill="#c08a39"/><rect x="25" y="14" width="46" height="6" fill="#efd070"/><rect x="13" y="30" width="70" height="42" fill="#49382d"/><rect x="18" y="35" width="60" height="31" fill="#c08a39"/><rect x="22" y="39" width="52" height="10" fill="#efd070"/><polygon points="24,38 32,22 39,38" fill="#fff1a4"/><polygon points="41,38 48,15 55,38" fill="#fff1a4"/><polygon points="58,38 66,23 72,38" fill="#fff1a4"/><rect x="16" y="48" width="64" height="7" fill="#b6792f"/><rect x="42" y="45" width="13" height="18" fill="#49382d"/><rect x="45" y="48" width="7" height="9" fill="#fff1a4"/><rect x="20" y="58" width="8" height="5" fill="#efd070"/><rect x="68" y="58" width="8" height="5" fill="#efd070"/><rect x="27" y="52" width="5" height="5" fill="#fff1a4"/><rect x="64" y="52" width="5" height="5" fill="#fff1a4"/><polygon points="8,44 13,38 13,55" fill="#fff1a4"/><polygon points="88,44 83,38 83,55" fill="#fff1a4"/></svg>
