<svg xmlns="http://www.w3.org/2000/svg" width="64" height="104" viewBox="0 0 64 104" shape-rendering="crispEdges"><rect x="2" y="2" width="60" height="100" fill="#49382d"/><rect x="4" y="4" width="56" height="96" fill="#fff1d3"/><rect x="7" y="7" width="50" height="90" fill="#748950"/><rect x="9" y="9" width="46" height="86" fill="#f5e5c3"/><rect x="12" y="13" width="40" height="61" fill="#748950"/><rect x="14" y="15" width="36" height="57" fill="#263e3c"/><g transform="translate(16 29)"><rect x="3" y="8" width="13" height="4" fill="#dfb665"/><rect x="3" y="8" width="4" height="12" fill="#dfb665"/><rect x="3" y="18" width="13" height="4" fill="#dfb665"/><rect x="12" y="13" width="8" height="5" fill="#dfb665"/><rect x="18" y="11" width="12" height="4" fill="#dfb665"/><rect x="26" y="11" width="4" height="12" fill="#dfb665"/><rect x="18" y="21" width="12" height="4" fill="#dfb665"/></g><rect x="18" y="79" width="28" height="2" fill="#748950"/><rect x="24" y="85" width="16" height="2" fill="#748950"/><rect x="19" y="21" width="2" height="2" fill="#fff1d3"/><rect x="44" y="25" width="2" height="2" fill="#fff1d3"/><rect x="20" y="64" width="2" height="2" fill="#fff1d3"/><rect x="46" y="61" width="2" height="2" fill="#fff1d3"/><rect x="18" y="91" width="2" height="2" fill="#748950"/><rect x="22" y="91" width="2" height="2" fill="#748950"/></svg>